<svg width="1232" height="234" viewBox="0 0 1232 234" fill="none" xmlns="http://www.w3.org/2000/svg">
<path d="M64 118.672V107.089L126.199 71.0354V83.0531L74.8487 112.156V113.315L126.199 142.418V154.725L64 118.672Z" fill="white"/>
<path d="M182.701 158.779C174.89 158.779 168.14 157.476 162.45 154.87C156.857 152.167 152.083 148.595 148.13 144.155L155.941 137.35C159.509 141.115 163.414 144.01 167.657 146.037C171.9 148.065 177.011 149.078 182.99 149.078C188.776 149.078 193.502 148.065 197.166 146.037C200.927 143.914 202.807 140.632 202.807 136.192C202.807 134.261 202.422 132.668 201.65 131.414C200.975 130.062 200.011 129 198.757 128.228C197.503 127.456 196.105 126.877 194.562 126.491C193.019 126.008 191.38 125.622 189.644 125.332L177.928 123.595C175.324 123.209 172.479 122.678 169.393 122.002C166.404 121.326 163.655 120.265 161.148 118.817C158.641 117.272 156.519 115.245 154.784 112.735C153.144 110.226 152.325 106.944 152.325 102.89C152.325 99.125 153.048 95.8913 154.494 93.1885C156.037 90.3892 158.159 88.0726 160.859 86.2385C163.559 84.308 166.741 82.9083 170.406 82.0396C174.07 81.0743 178.072 80.5917 182.412 80.5917C189.162 80.5917 194.996 81.6535 199.914 83.7771C204.929 85.9007 209.22 88.8448 212.788 92.6094L205.266 99.7042C204.398 98.6424 203.289 97.5806 201.939 96.5188C200.686 95.3604 199.095 94.3469 197.166 93.4781C195.334 92.5128 193.164 91.7406 190.657 91.1615C188.149 90.5823 185.256 90.2927 181.978 90.2927C176.095 90.2927 171.563 91.3063 168.381 93.3333C165.295 95.3604 163.752 98.3045 163.752 102.166C163.752 104.096 164.089 105.737 164.764 107.089C165.536 108.343 166.548 109.357 167.802 110.129C169.056 110.901 170.454 111.529 171.997 112.011C173.636 112.398 175.276 112.735 176.915 113.025L188.632 114.762C191.332 115.149 194.177 115.68 197.166 116.355C200.155 117.031 202.904 118.141 205.411 119.685C207.918 121.133 209.992 123.112 211.631 125.622C213.367 128.132 214.235 131.414 214.235 135.468C214.235 142.9 211.342 148.644 205.556 152.698C199.866 156.752 192.248 158.779 182.701 158.779Z" fill="white"/>
<path d="M239.926 176.154H276.088V92.175H238.624V82.3292H287.66V168.915C287.66 173.934 286.31 178.036 283.61 181.222C281.006 184.407 276.86 186 271.17 186H239.926V176.154ZM281.874 65.8229C278.499 65.8229 276.136 65.1472 274.786 63.7958C273.436 62.3479 272.761 60.5622 272.761 58.4385V56.1219C272.761 53.9983 273.436 52.2608 274.786 50.9094C276.136 49.4615 278.499 48.7375 281.874 48.7375C285.249 48.7375 287.612 49.4615 288.962 50.9094C290.312 52.2608 290.987 53.9983 290.987 56.1219V58.4385C290.987 60.5622 290.312 62.3479 288.962 63.7958C287.612 65.1472 285.249 65.8229 281.874 65.8229Z" fill="white"/>
<path d="M372.947 144.879H372.369C371.597 146.713 370.633 148.499 369.476 150.236C368.318 151.877 366.872 153.325 365.136 154.58C363.497 155.835 361.52 156.849 359.205 157.621C356.891 158.393 354.191 158.779 351.105 158.779C343.294 158.779 337.026 156.318 332.301 151.395C327.575 146.375 325.213 139.329 325.213 130.255V82.3292H336.785V128.228C336.785 135.082 338.279 140.198 341.269 143.576C344.258 146.858 348.646 148.499 354.432 148.499C356.746 148.499 359.013 148.209 361.231 147.63C363.448 147.051 365.425 146.182 367.161 145.024C368.897 143.866 370.295 142.418 371.356 140.68C372.417 138.846 372.947 136.674 372.947 134.165V82.3292H384.519V157.042H372.947V144.879Z" fill="white"/>
<path d="M412.814 157.042V82.3292H424.386V94.4917H424.965C425.736 92.6576 426.7 90.9201 427.858 89.2792C429.015 87.5417 430.413 86.0455 432.052 84.7906C433.788 83.5358 435.813 82.5222 438.128 81.75C440.442 80.9778 443.142 80.5917 446.228 80.5917C454.039 80.5917 460.307 83.1014 465.033 88.1208C469.758 93.0438 472.12 100.042 472.12 109.116V157.042H460.548V111.143C460.548 104.289 459.054 99.2215 456.064 95.9396C453.075 92.5611 448.687 90.8719 442.901 90.8719C440.587 90.8719 438.321 91.1615 436.103 91.7406C433.885 92.3198 431.908 93.1885 430.172 94.3469C428.436 95.5052 427.038 97.0014 425.977 98.8354C424.916 100.669 424.386 102.793 424.386 105.206V157.042H412.814Z" fill="white"/>
<path d="M546.848 144.879H546.269C541.448 154.146 533.781 158.779 523.27 158.779C514.109 158.779 506.925 155.352 501.717 148.499C496.606 141.645 494.051 132.041 494.051 119.685C494.051 107.33 496.606 97.7253 501.717 90.8719C506.925 84.0184 514.109 80.5917 523.27 80.5917C533.781 80.5917 541.448 85.225 546.269 94.4917H546.848V82.3292H558.42V186H546.848V144.879ZM527.754 148.499C530.358 148.499 532.817 148.161 535.131 147.485C537.446 146.81 539.471 145.844 541.207 144.59C542.942 143.238 544.292 141.645 545.257 139.811C546.317 137.881 546.848 135.661 546.848 133.151V106.22C546.848 103.71 546.317 101.538 545.257 99.7042C544.292 97.7736 542.942 96.1809 541.207 94.926C539.471 93.5747 537.446 92.5611 535.131 91.8854C532.817 91.2097 530.358 90.8719 527.754 90.8719C521.004 90.8719 515.748 92.9472 511.987 97.0979C508.323 101.152 506.491 106.558 506.491 113.315V126.056C506.491 132.813 508.323 138.267 511.987 142.418C515.748 146.472 521.004 148.499 527.754 148.499Z" fill="white"/>
<path d="M633.147 144.879H632.569C631.797 146.713 630.833 148.499 629.676 150.236C628.518 151.877 627.072 153.325 625.336 154.58C623.697 155.835 621.72 156.849 619.406 157.621C617.091 158.393 614.391 158.779 611.305 158.779C603.494 158.779 597.226 156.318 592.501 151.395C587.775 146.375 585.413 139.329 585.413 130.255V82.3292H596.985V128.228C596.985 135.082 598.48 140.198 601.469 143.576C604.458 146.858 608.846 148.499 614.632 148.499C616.947 148.499 619.213 148.209 621.431 147.63C623.649 147.051 625.625 146.182 627.361 145.024C629.097 143.866 630.495 142.418 631.556 140.68C632.617 138.846 633.147 136.674 633.147 134.165V82.3292H644.719V157.042H633.147V144.879Z" fill="white"/>
<path d="M703.535 158.779C698.135 158.779 693.265 157.862 688.926 156.028C684.683 154.194 681.018 151.588 677.932 148.209C674.943 144.734 672.628 140.632 670.989 135.902C669.35 131.076 668.53 125.718 668.53 119.83C668.53 113.845 669.35 108.44 670.989 103.614C672.725 98.7872 675.087 94.6847 678.077 91.3063C681.066 87.8313 684.634 85.1767 688.781 83.3427C693.024 81.5087 697.701 80.5917 702.812 80.5917C707.826 80.5917 712.359 81.5087 716.409 83.3427C720.556 85.1767 724.076 87.7347 726.969 91.0167C729.862 94.2021 732.079 98.0149 733.622 102.455C735.165 106.895 735.937 111.77 735.937 117.079V122.581H680.681V126.056C680.681 129.338 681.211 132.379 682.272 135.178C683.333 137.977 684.827 140.391 686.756 142.418C688.781 144.445 691.192 146.037 693.988 147.196C696.881 148.258 700.064 148.789 703.535 148.789C708.55 148.789 712.889 147.63 716.554 145.314C720.218 142.997 723.015 139.811 724.943 135.757L733.478 141.549C731.26 146.568 727.547 150.719 722.34 154.001C717.229 157.186 710.961 158.779 703.535 158.779ZM702.812 90.1479C699.63 90.1479 696.688 90.7271 693.988 91.8854C691.288 93.0438 688.926 94.6365 686.901 96.6635C684.972 98.6906 683.429 101.104 682.272 103.903C681.211 106.606 680.681 109.598 680.681 112.88V113.894H723.497V112.301C723.497 109.019 722.967 106.027 721.906 103.324C720.941 100.621 719.543 98.3045 717.711 96.374C715.975 94.3469 713.805 92.8024 711.202 91.7406C708.694 90.6788 705.898 90.1479 702.812 90.1479Z" fill="white"/>
<path d="M793.596 65.8229C790.22 65.8229 787.858 65.1472 786.508 63.7958C785.158 62.3479 784.483 60.5622 784.483 58.4385V56.1219C784.483 53.9983 785.158 52.2608 786.508 50.9094C787.858 49.4615 790.22 48.7375 793.596 48.7375C796.971 48.7375 799.333 49.4615 800.683 50.9094C802.033 52.2608 802.708 53.9983 802.708 56.1219V58.4385C802.708 60.5622 802.033 62.3479 800.683 63.7958C799.333 65.1472 796.971 65.8229 793.596 65.8229ZM760.905 147.196H787.81V92.175H760.905V82.3292H799.382V147.196H824.551V157.042H760.905V147.196Z" fill="white"/>
<path d="M843.443 147.196H865.285V92.175H843.443V82.3292H876.857V101.152H877.581C879.124 95.2639 882.017 90.6788 886.26 87.3969C890.599 84.0184 896.096 82.3292 902.75 82.3292H913.164V93.9125H899.133C892.48 93.9125 887.079 95.8431 882.933 99.7042C878.882 103.565 876.857 108.633 876.857 114.907V147.196H905.787V157.042H843.443V147.196Z" fill="white"/>
<path d="M990.64 157.042C986.108 157.042 982.877 155.883 980.949 153.567C979.02 151.25 977.815 148.354 977.332 144.879H976.609C974.97 149.223 972.318 152.65 968.653 155.159C965.085 157.573 960.264 158.779 954.188 158.779C946.377 158.779 940.157 156.752 935.529 152.698C930.9 148.644 928.585 143.093 928.585 136.047C928.585 129.097 931.093 123.74 936.107 119.975C941.218 116.21 949.415 114.328 960.698 114.328H976.609V106.944C976.609 101.442 975.066 97.3392 971.98 94.6365C968.895 91.8372 964.507 90.4375 958.817 90.4375C953.803 90.4375 949.704 91.451 946.522 93.4781C943.34 95.4087 940.784 98.0632 938.856 101.442L931.045 95.65C932.009 93.7194 933.311 91.8372 934.95 90.0031C936.589 88.1691 938.615 86.5764 941.025 85.225C943.436 83.7771 946.185 82.667 949.27 81.8948C952.356 81.026 955.78 80.5917 959.541 80.5917C968.316 80.5917 975.259 82.8118 980.37 87.2521C985.578 91.6924 988.181 97.8701 988.181 105.785V146.906H998.596V157.042H990.64ZM956.214 149.078C959.203 149.078 961.903 148.74 964.314 148.065C966.821 147.292 968.991 146.327 970.823 145.169C972.655 143.914 974.054 142.466 975.018 140.825C976.079 139.088 976.609 137.253 976.609 135.323V123.016H960.698C953.755 123.016 948.692 123.981 945.51 125.911C942.327 127.842 940.736 130.641 940.736 134.309V137.35C940.736 141.211 942.086 144.155 944.786 146.182C947.583 148.113 951.392 149.078 956.214 149.078Z" fill="white"/>
<path d="M1018.79 177.023L1069.13 47H1079.54L1029.21 177.023H1018.79Z" fill="white"/>
<path d="M1104.8 142.707L1156.15 113.604V112.446L1104.8 83.3427V71.0354L1167 107.089V118.672L1104.8 154.725V142.707Z" fill="white"/>
</svg>
